G04 #@! TF.GenerationSoftware,KiCad,Pcbnew,8.0.8*
G04 #@! TF.CreationDate,2025-01-17T19:21:09-08:00*
G04 #@! TF.ProjectId,CA-53W backlight,43412d35-3357-4206-9261-636b6c696768,rev?*
G04 #@! TF.SameCoordinates,Original*
G04 #@! TF.FileFunction,Copper,L1,Top*
G04 #@! TF.FilePolarity,Positive*
%FSLAX46Y46*%
G04 Gerber Fmt 4.6, Leading zero omitted, Abs format (unit mm)*
G04 Created by KiCad (PCBNEW 8.0.8) date 2025-01-17 19:21:09*
%MOMM*%
%LPD*%
G01*
G04 APERTURE LIST*
G04 Aperture macros list*
%AMFreePoly0*
4,1,6,0.459254,0.000000,0.234254,-0.320000,-0.165746,-0.320000,-0.165746,0.320000,0.234254,0.320000,0.459254,0.000000,0.459254,0.000000,$1*%
%AMFreePoly1*
4,1,6,0.170177,-0.320000,-0.417015,-0.320000,-0.200000,0.000000,-0.417015,0.320000,0.170177,0.320000,0.170177,-0.320000,0.170177,-0.320000,$1*%
G04 Aperture macros list end*
G04 #@! TA.AperFunction,Conductor*
%ADD10C,0.200000*%
G04 #@! TD*
G04 #@! TA.AperFunction,SMDPad,CuDef*
%ADD11FreePoly0,0.000000*%
G04 #@! TD*
G04 #@! TA.AperFunction,SMDPad,CuDef*
%ADD12FreePoly1,0.000000*%
G04 #@! TD*
G04 #@! TA.AperFunction,SMDPad,CuDef*
%ADD13C,1.000000*%
G04 #@! TD*
G04 #@! TA.AperFunction,ViaPad*
%ADD14C,0.600000*%
G04 #@! TD*
G04 #@! TA.AperFunction,ViaPad*
%ADD15C,2.540000*%
G04 #@! TD*
G04 #@! TA.AperFunction,ViaPad*
%ADD16C,0.400000*%
G04 #@! TD*
G04 #@! TA.AperFunction,ViaPad*
%ADD17C,0.500000*%
G04 #@! TD*
G04 APERTURE END LIST*
D10*
X129872000Y-103997000D02*
X131904000Y-103997000D01*
X131904000Y-107045000D01*
X129872000Y-107045000D01*
X129872000Y-103997000D01*
G04 #@! TA.AperFunction,Conductor*
G36*
X129872000Y-103997000D02*
G01*
X131904000Y-103997000D01*
X131904000Y-107045000D01*
X129872000Y-107045000D01*
X129872000Y-103997000D01*
G37*
G04 #@! TD.AperFunction*
X139714500Y-88630000D02*
X147715500Y-88630000D01*
X147715500Y-94472000D01*
X139714500Y-94472000D01*
X139714500Y-88630000D01*
G04 #@! TA.AperFunction,Conductor*
G36*
X139714500Y-88630000D02*
G01*
X147715500Y-88630000D01*
X147715500Y-94472000D01*
X139714500Y-94472000D01*
X139714500Y-88630000D01*
G37*
G04 #@! TD.AperFunction*
D11*
X144210451Y-87868000D03*
D12*
X145035451Y-87868000D03*
D13*
X138952500Y-95234000D03*
D11*
X146284785Y-87868000D03*
D12*
X147109785Y-87868000D03*
D11*
X140061785Y-87868000D03*
D12*
X140886785Y-87868000D03*
D11*
X142136118Y-87868000D03*
D12*
X142961118Y-87868000D03*
D13*
X148477500Y-95234000D03*
D14*
X131624600Y-105648000D03*
D15*
X143765800Y-93278200D03*
D14*
X148464800Y-95234000D03*
X133174000Y-105648000D03*
D16*
X146953500Y-86344000D03*
D14*
X148604500Y-89773000D03*
D16*
X140857500Y-86344000D03*
X143905500Y-86344000D03*
X138825500Y-87487000D03*
D17*
X140476500Y-89265000D03*
X147080500Y-93710000D03*
X147080500Y-89265000D03*
X140603500Y-93710000D03*
D10*
X148477500Y-100504500D02*
X148477500Y-95234000D01*
X143334000Y-105648000D02*
X148477500Y-100504500D01*
X133174000Y-105648000D02*
X143334000Y-105648000D01*
X146284785Y-87012715D02*
X146284785Y-87868000D01*
X146953500Y-86344000D02*
X146284785Y-87012715D01*
X148604500Y-89773000D02*
X148477500Y-89900000D01*
X148477500Y-89900000D02*
X148477500Y-95234000D01*
X140857500Y-86344000D02*
X140857500Y-86589382D01*
X140857500Y-86589382D02*
X142136118Y-87868000D01*
X143905500Y-87563049D02*
X144210451Y-87868000D01*
X143905500Y-86344000D02*
X143905500Y-87563049D01*
X139206500Y-87868000D02*
X140061785Y-87868000D01*
X138825500Y-87487000D02*
X139206500Y-87868000D01*
X142961118Y-87868000D02*
X142961118Y-90797118D01*
X142961118Y-90797118D02*
X140886785Y-88722785D01*
X140886785Y-88722785D02*
X140886785Y-87868000D01*
X138952500Y-95234000D02*
X140032000Y-95234000D01*
X147109785Y-87868000D02*
X147109785Y-88156215D01*
X145035451Y-90230549D02*
X145035451Y-87868000D01*
X147109785Y-88156215D02*
X145035451Y-90230549D01*
X140032000Y-95234000D02*
X143715000Y-91551000D01*
X133174000Y-105648000D02*
X131396000Y-105648000D01*
X131396000Y-105648000D02*
X131269000Y-105521000D01*
M02*
