G04 #@! TF.GenerationSoftware,KiCad,Pcbnew,8.0.8*
G04 #@! TF.CreationDate,2025-01-17T19:21:09-08:00*
G04 #@! TF.ProjectId,CA-53W backlight,43412d35-3357-4206-9261-636b6c696768,rev?*
G04 #@! TF.SameCoordinates,Original*
G04 #@! TF.FileFunction,Legend,Bot*
G04 #@! TF.FilePolarity,Positive*
%FSLAX46Y46*%
G04 Gerber Fmt 4.6, Leading zero omitted, Abs format (unit mm)*
G04 Created by KiCad (PCBNEW 8.0.8) date 2025-01-17 19:21:09*
%MOMM*%
%LPD*%
G01*
G04 APERTURE LIST*
G04 Aperture macros list*
%AMRoundRect*
0 Rectangle with rounded corners*
0 $1 Rounding radius*
0 $2 $3 $4 $5 $6 $7 $8 $9 X,Y pos of 4 corners*
0 Add a 4 corners polygon primitive as box body*
4,1,4,$2,$3,$4,$5,$6,$7,$8,$9,$2,$3,0*
0 Add four circle primitives for the rounded corners*
1,1,$1+$1,$2,$3*
1,1,$1+$1,$4,$5*
1,1,$1+$1,$6,$7*
1,1,$1+$1,$8,$9*
0 Add four rect primitives between the rounded corners*
20,1,$1+$1,$2,$3,$4,$5,0*
20,1,$1+$1,$4,$5,$6,$7,0*
20,1,$1+$1,$6,$7,$8,$9,0*
20,1,$1+$1,$8,$9,$2,$3,0*%
G04 Aperture macros list end*
%ADD10C,0.100000*%
%ADD11RoundRect,0.147500X0.147500X0.172500X-0.147500X0.172500X-0.147500X-0.172500X0.147500X-0.172500X0*%
G04 APERTURE END LIST*
D10*
X146471666Y-86344000D02*
G75*
G02*
X146371666Y-86344000I-50000J0D01*
G01*
X146371666Y-86344000D02*
G75*
G02*
X146471666Y-86344000I50000J0D01*
G01*
X143381333Y-86344000D02*
G75*
G02*
X143281333Y-86344000I-50000J0D01*
G01*
X143281333Y-86344000D02*
G75*
G02*
X143381333Y-86344000I50000J0D01*
G01*
X140291000Y-86344000D02*
G75*
G02*
X140191000Y-86344000I-50000J0D01*
G01*
X140191000Y-86344000D02*
G75*
G02*
X140291000Y-86344000I50000J0D01*
G01*
X149562000Y-86344000D02*
G75*
G02*
X149462000Y-86344000I-50000J0D01*
G01*
X149462000Y-86344000D02*
G75*
G02*
X149562000Y-86344000I50000J0D01*
G01*
%LPC*%
X139651000Y-88553800D02*
X147779000Y-88553800D01*
X147779000Y-94522800D01*
X139651000Y-94522800D01*
X139651000Y-88553800D01*
G36*
X139651000Y-88553800D02*
G01*
X147779000Y-88553800D01*
X147779000Y-94522800D01*
X139651000Y-94522800D01*
X139651000Y-88553800D01*
G37*
X129872000Y-103997000D02*
X131904000Y-103997000D01*
X131904000Y-107045000D01*
X129872000Y-107045000D01*
X129872000Y-103997000D01*
G36*
X129872000Y-103997000D02*
G01*
X131904000Y-103997000D01*
X131904000Y-107045000D01*
X129872000Y-107045000D01*
X129872000Y-103997000D01*
G37*
D11*
X145816666Y-86344000D03*
X144846666Y-86344000D03*
X142726333Y-86344000D03*
X141756333Y-86344000D03*
X139636000Y-86344000D03*
X138666000Y-86344000D03*
X148907000Y-86344000D03*
X147937000Y-86344000D03*
%LPD*%
M02*
